<svg xmlns="http://www.w3.org/2000/svg" viewBox="0 0 412.6 257.04"><defs><style>.cls-1{fill:#fff;}.cls-2{fill:#7d4f35;}</style></defs><g id="Layer_2" data-name="Layer 2"><g id="Layer_1-2" data-name="Layer 1"><path class="cls-1" d="M91.24,83.15,87.8,93.67a2.28,2.28,0,0,1-2.86,1.74c-1.25-.37-1.8-1.52-1.43-3,0-.17.1-.34.16-.51,1.18-3.37,2.22-6.8,3.55-10.11,12.49-31,33.62-54.19,63.69-68.87C175.33,1,201.11-2.55,228,1.78a122.36,122.36,0,0,1,31.72,9.58q41.24,18.93,62,59.32a120.36,120.36,0,0,1,7,16.62,7.12,7.12,0,0,1,.42,1.55,2.18,2.18,0,0,1-1.42,2.24,2.1,2.1,0,0,1-2.62-.94,10.4,10.4,0,0,1-.65-1.66,123.37,123.37,0,0,0-35.69-53.24A120.47,120.47,0,0,0,246.58,11C216,.92,185.81,2.3,156.34,15.26c-22.63,9.94-40.51,25.6-53.89,46.37A131.52,131.52,0,0,0,91.24,83.15Z"/><path class="cls-1" d="M206,71.75c-1.23,2.19-2.32,4.08-3.39,6L188.4,103.32c-.7,1.25-1.36,2.52-2,3.77a6.23,6.23,0,0,1-3,2.94,2.82,2.82,0,0,1-4.17-2.73,6,6,0,0,1,1.07-3.35q5.64-8.46,11.23-17c3.87-5.85,7.72-11.73,11.61-17.57a1.76,1.76,0,0,0,0-2.39A11.9,11.9,0,0,1,202,65.38,6.86,6.86,0,0,0,197.16,62a22.23,22.23,0,0,1-11.19-6c-4.07-4-7.06-8.71-8.06-14.41a18,18,0,0,1-.07-5.49c.53-4,3.62-6.08,7.58-5.32a14.19,14.19,0,0,1,5.58,2.3,28.34,28.34,0,0,1,11.24,15.64,20.14,20.14,0,0,1,.55,7.25c0,.59,0,1.19-.08,1.78-.19,3.42.34,4.74,3,7.37,1.17-1.87,2.64-3.51,3.34-5.63a8.48,8.48,0,0,0,.15-3.88,26.39,26.39,0,0,1-.22-4.26,8.55,8.55,0,0,1,1.8-4.74c4-5.62,7.89-11.32,11.82-17,.36-.51.77-1,1.15-1.47l.43.2a5.42,5.42,0,0,1-.3,1.17c-1.14,2.09-2.31,4.16-3.47,6.24l-4.05,7.35c-.06.11-.18.22-.17.31.07.36.17.71.26,1.07.35-.11.87-.11,1-.34.95-1.44,1.82-2.93,2.72-4.41,1.76-2.89,3.51-5.8,5.29-8.68a15.88,15.88,0,0,1,1.16-1.48,2.24,2.24,0,0,1-.35,2.37c-1,1.94-2.13,3.85-3.19,5.78q-2,3.59-4,7.19c-.23.4-.59.81.21,1.27a9.46,9.46,0,0,0,.95-1.13c2.47-3.86,4.91-7.73,7.39-11.59.46-.72,1-1.36,1.6-2.12.61.87.16,1.37-.11,1.85-2.2,3.89-4.43,7.75-6.62,11.64a5.24,5.24,0,0,0-1.12,2.76c1,.14,1.18-.54,1.52-1.06q3.45-5.41,6.92-10.82c.59-.93,1.22-1.84,1.95-2.91a1.72,1.72,0,0,1-.12,2c-1.44,2.94-2.91,5.86-4.38,8.79s-3.08,5.91-4.49,8.93A10.39,10.39,0,0,1,217,58.47c-.67.24-1.31.57-2,.82a7.3,7.3,0,0,0-4,3.4c-1,1.81-2,3.66-3,5.57.3.43.59.87.9,1.3q11.82,15.8,23.65,31.6a5.17,5.17,0,0,1,1.3,3.94,2.72,2.72,0,0,1-3.51,2.56,4.49,4.49,0,0,1-3-2.09c-.79-1.19-1.55-2.4-2.31-3.61L207,73.2C206.76,72.8,206.49,72.42,206,71.75Z"/><path class="cls-1" d="M159.63,248a128.8,128.8,0,0,1-57.11-44.5,15.92,15.92,0,0,1-1.1-1.62A2.22,2.22,0,0,1,102,199a2.19,2.19,0,0,1,2.92.31,12.6,12.6,0,0,1,1.06,1.43A124.13,124.13,0,0,0,309.8,197.8a7.56,7.56,0,0,1,.64-.85,2.21,2.21,0,0,1,2.9-.45,2.27,2.27,0,0,1,.67,3,16.64,16.64,0,0,1-1,1.49c-23.23,32.72-54.77,51.31-94.72,55.43A123,123,0,0,1,176,253.2,121.72,121.72,0,0,1,159.63,248Z"/><path class="cls-1" d="M246.15,63c-.22,1.15-.44,2.3-.68,3.45-.72,3.57-1.42,7.11-.62,10.79.52,2.36,1.62,4,4,4.73a5.91,5.91,0,0,0,6.34-1.74,6.9,6.9,0,0,1,1.19-1.08,4,4,0,0,1-1,2.46,45.45,45.45,0,0,1-3.24,3.55A4.78,4.78,0,0,0,250.5,88c1.54,1.23,2.05,1.31,3.59.29a11.75,11.75,0,0,0,5-7.33,49.84,49.84,0,0,0,.82-6.7,15.51,15.51,0,0,1,.3-2.89,7.47,7.47,0,0,1,.38,1,20.58,20.58,0,0,1-.86,13.3,13,13,0,0,1-3,4.41,11.28,11.28,0,0,0-3.58,7.76c-.14,2.18.05,4.37.1,6.66.75,0,1.33,0,1.92,0l151.37-1.07c.54,0,1.08,0,1.61,0a2.2,2.2,0,0,1,2.18,2.14,2.16,2.16,0,0,1-2.09,2.24c-.65.07-1.31,0-2,0l-92.83.65q-30.07.22-60.15.43c-1.19,0-2.38,0-3.57-.12-1.38-.07-1.54-.2-1.56-1.57-.05-2.86,0-5.71-.07-8.57a17,17,0,0,0-.09-2.14,6.65,6.65,0,0,0-3.24-5.1c-5.17-3-6.87-7.61-6.24-13.33C239.25,72.24,242,67.33,246.15,63Z"/><path class="cls-1" d="M158.79,105.18c0-2.45,0-4.65,0-6.85a7,7,0,0,0-3.45-6.28c-5.1-3-6.73-7.59-6.13-13.22.62-5.86,3.3-10.74,7.07-15.12.07-.07.2-.08.51-.21-.37,1.91-.71,3.7-1.08,5.49a21.26,21.26,0,0,0-.22,9c.5,2.29,1.6,4,3.92,4.63a5.91,5.91,0,0,0,6.36-1.7l1.17-1.26.33.19a15.18,15.18,0,0,1-1.33,2.53,35.14,35.14,0,0,1-3.25,3.54,4.5,4.5,0,0,0-1.57,2.7c1.42,1.25,1.94,1.34,3.43.39a11.77,11.77,0,0,0,5.19-7.42,48.08,48.08,0,0,0,.81-6.7,13.82,13.82,0,0,1,.33-2.87,9.78,9.78,0,0,1,.4,1.19,20.35,20.35,0,0,1-.92,13.11,13.41,13.41,0,0,1-3,4.41,12.33,12.33,0,0,0-3.65,9.55c0,2.26.13,4.52.18,6.78s-.19,2.51-2.38,2.54c-6.73.09-13.45.12-20.17.17L8,110.72a14.41,14.41,0,0,1-1.61,0,2.2,2.2,0,1,1,0-4.4c1.37-.07,2.74,0,4.1,0l146.36-1C157.49,105.23,158.07,105.2,158.79,105.18Z"/><path class="cls-1" d="M337,215.48c-1.77,4.89-7,6.76-11.41,6.13A10.59,10.59,0,0,1,327,200.53c10.94-.13,21.89-.18,32.84-.25l49.44-.33a10.26,10.26,0,0,1,1.24,0,2.2,2.2,0,0,1,.07,4.39,8.67,8.67,0,0,1-1.25,0L328,205a19.13,19.13,0,0,0-2.14.07,6.11,6.11,0,0,0-5.39,6.29,6,6,0,0,0,5.59,5.9,11.43,11.43,0,0,0,3.86-.42,4.67,4.67,0,0,0,3.37-4.19c.08-.59.06-1.19.15-1.78a2.14,2.14,0,0,1,2.19-1.94,2.09,2.09,0,0,1,2.13,2A8.79,8.79,0,0,1,337,215.48Z"/><path class="cls-1" d="M98.43,216.78a11.08,11.08,0,0,1-17.06,4.31A9.48,9.48,0,0,1,77.88,213a2.19,2.19,0,0,1,2.23-2.31c1.24,0,2.08.85,2.2,2.3,0,.3,0,.6,0,.9a5,5,0,0,0,3.91,4.75c4.5,1.17,7.8-.79,8.77-4.21a6.06,6.06,0,0,0-6-7.79c-5.06,0-10.11.05-15.17.08l-65.32.46a11.86,11.86,0,0,1-1.79,0,2.18,2.18,0,0,1-.15-4.29A6.74,6.74,0,0,1,8,202.79q39.81-.3,79.6-.58c4.33,0,7.81,1.51,10.07,5.28A10.31,10.31,0,0,1,98.43,216.78Z"/><path class="cls-1" d="M299.39,189.38a2.33,2.33,0,0,1-1.59-2.24,2.12,2.12,0,0,1,1.54-2,6,6,0,0,1,1.59-.14q54-.41,108-.78a10.7,10.7,0,0,1,1.6,0,2.16,2.16,0,0,1,1.94,2.18,2.12,2.12,0,0,1-1.8,2.13,8.5,8.5,0,0,1-1.6.08l-92.25.65-15.7.11C300.42,189.44,299.77,189.39,299.39,189.38Z"/><path class="cls-1" d="M6.55,191.48a2.3,2.3,0,0,1-1.75-2.31,2.08,2.08,0,0,1,1.56-1.95A7,7,0,0,1,8,187.08q54.15-.39,108.32-.75a6,6,0,0,1,1.41.08,2.17,2.17,0,0,1-.08,4.27,7.47,7.47,0,0,1-1.42.07l-108,.76C7.57,191.51,6.92,191.49,6.55,191.48Z"/><path class="cls-1" d="M78.79,88.7a10.08,10.08,0,0,1-9.41,5.87c-4.28.11-8.56.1-12.84.13L7.84,95A11.49,11.49,0,0,1,5.89,95a2.18,2.18,0,0,1-.06-4.28,9.48,9.48,0,0,1,1.6-.09l60.65-.42c.54,0,1.07,0,1.61,0A6.14,6.14,0,0,0,70,77.91a9,9,0,0,0-2.49,0,5.3,5.3,0,0,0-4.86,5.27c0,.35,0,.72,0,1.07a2.19,2.19,0,0,1-2,2,2.09,2.09,0,0,1-2.32-1.77,10.42,10.42,0,0,1,.12-3,8.89,8.89,0,0,1,5-6.78A11.35,11.35,0,0,1,75,75.13C79.32,77.86,81,83.17,78.79,88.7Z"/><path class="cls-1" d="M341.29,92.12a11,11,0,0,1-6.69-11.6,10.54,10.54,0,0,1,9.68-9c4.34-.31,8,.94,10.34,4.9a9.63,9.63,0,0,1,1.3,5.48,2.18,2.18,0,0,1-2.21,2.28A2.13,2.13,0,0,1,351.53,82c0-.18,0-.36,0-.54-.13-2.38-1-4.28-3.43-5.12-2.66-.92-5.22-.78-7.34,1.22A5.86,5.86,0,0,0,339.13,84a6,6,0,0,0,6,4.21c3.21,0,6.43,0,9.64-.05l51.73-.37a8.51,8.51,0,0,1,1.43,0A2.19,2.19,0,0,1,409.7,90a2.12,2.12,0,0,1-1.77,2.15,7.43,7.43,0,0,1-1.42.08q-30.51.23-61,.43A35.52,35.52,0,0,1,341.29,92.12Z"/><path class="cls-1" d="M388.92,140.21a10,10,0,1,1,5.57,13.14A10,10,0,0,1,388.92,140.21Z"/><path class="cls-1" d="M13.66,137.43a10,10,0,1,1-7.34,18.65,10,10,0,0,1,7.34-18.65Z"/><path class="cls-1" d="M187,240.15a11.55,11.55,0,0,1-5.63-15.34,9.85,9.85,0,0,1,9.15-5.69,4.39,4.39,0,0,1,.72.07,2.21,2.21,0,0,1,1.86,2.08,2.16,2.16,0,0,1-1.88,2.24c-.47.08-1,0-1.43.09a5.25,5.25,0,0,0-4.74,4,6.83,6.83,0,0,0,2.32,7.53,6,6,0,0,0,6.43.45,5.77,5.77,0,0,0,3.29-5.34c0-4.34,0-8.69-.06-13,0-1.07,0-2.14,0-3.21,0-1.77.89-2.77,2.33-2.73s2.07,1,2.11,2.77c0,1.55,0,3.09,0,4.64,0,3.81.11,7.62.07,11.42a10.49,10.49,0,0,1-10.34,10.6A28.82,28.82,0,0,1,187,240.15Z"/><path class="cls-1" d="M218.32,239.39c-4-1.78-6.39-4.82-6.57-9.19-.23-5.53-.14-11.07-.16-16.6a3.28,3.28,0,0,1,.21-1.21,2.18,2.18,0,0,1,4.09.31,7,7,0,0,1,.11,1.59c.05,5.18.06,10.36.12,15.53A6.16,6.16,0,0,0,228.37,231a11.67,11.67,0,0,0,.06-2.13c-.24-3.51-2.19-5.4-5.72-5.58-.18,0-.36,0-.53,0A2.22,2.22,0,0,1,220,221.1a2.15,2.15,0,0,1,2.14-2.19,9.29,9.29,0,0,1,8,3.09,10.79,10.79,0,0,1,2.06,11.06,10.57,10.57,0,0,1-14,6.33Z"/><path class="cls-1" d="M163.63,145.21c-.2-.37-.42-.73-.59-1.12-.44-1-.77-2.13-1.29-3.13a6.71,6.71,0,0,0-5.6-3.9c-2.3-.17-4.61-.18-7.13-.28,0,3.72,0,7.2.06,10.65,2.3.53,4.2-.13,5.3-2.06a26.29,26.29,0,0,0,1.49-4c.13-.35.21-.73.37-1.33.31.36.57.52.57.68.07,5,.12,10,.17,15.29-.49-.38-.85-.51-.92-.73-.33-1-.48-2.1-.86-3.09-1-2.69-3-3.82-6.09-3.49,0,3.26,0,6.55.06,10a27.38,27.38,0,0,0,7.39-.38c3.64-.91,5.75-3.38,6.84-6.87.19-.63.48-1.23.78-2,.71,1.21.91,7.68.41,10.14q-12.59,0-25.25,0c-.08,0-.17-.27-.36-.59.54-.1,1-.18,1.4-.24,2.33-.29,3.39-1.38,3.52-3.72,0-.83,0-1.66,0-2.5,0-3.51,0-7-.07-10.52,0-.6,0-1.2-.07-1.78-.23-2.08-1.23-3-3.33-3.3-.5-.06-1.22.31-1.62-.76a77.53,77.53,0,0,1,8.31-.2c2.8-.08,5.59-.06,8.39-.07l8.53,0c0,3.14.05,6.14.08,9.14Z"/><path class="cls-1" d="M364.65,138.77c.77,1.43.84,14.44.17,15.73a6.77,6.77,0,0,1-.47-.93,32,32,0,0,0-.9-3.08c-1.11-2.62-2.91-3.59-6-3.26,0,3.23.05,6.48.07,9.7,2.86.89,7.94.2,10.23-1.31a10.18,10.18,0,0,0,4-5.74c.2-.62.21-1.42,1.3-1.9.17,3.44.1,6.67.14,10.11l-25.39,0c-.11,0-.22-.22-.52-.54.59-.12,1-.23,1.42-.29,2.44-.31,3.52-1.39,3.54-3.87,0-4.76,0-9.52-.12-14.28-.06-2.39-1.12-3.39-3.5-3.69-.47-.06-1.1.23-1.42-.77,4.26-.32,8.43-.14,12.59-.21s8.3-.06,12.42-.09c.39,2.37.32,8.13-.17,9.51-.28-.56-.49-.93-.66-1.33-.44-1-.77-2.14-1.3-3.13a6.48,6.48,0,0,0-5.27-3.8c-2.41-.2-4.84-.25-7.45-.38,0,3.8.06,7.34.09,10.93C362.85,146.46,363.68,142.59,364.65,138.77Z"/><path class="cls-1" d="M329.78,148.37c.07-1.07.73-.84,1.19-.85,3,0,5.94-.06,8.92-.09l4.63,0c.46,0,.91.06,1.73.12-.46.41-.65.66-.89.75a4.26,4.26,0,0,1-.89.09c-2.1.33-3,1.3-3.17,3.42-.09,1.48,0,3,0,4.46,0,.58,0,1.16,0,1.88a3.48,3.48,0,0,1-1.12-.39c-1.25-1.07-2.65-.92-4.06-.51-1,.27-1.89.71-2.86,1a15.15,15.15,0,0,1-12.7-1.74,11.57,11.57,0,0,1-1.09-18.89,13.51,13.51,0,0,1,13.91-2.38c.94.34,1.84.82,2.78,1.22,1.43.59,2,.47,3-.64l1.15-1.26c.76,1.34.4,2.54.49,3.67s.1,2.26.09,3.39a12.07,12.07,0,0,1-.16,3.74,5.7,5.7,0,0,1-.74-.89c-.31-.71-.52-1.46-.85-2.16a11.39,11.39,0,0,0-9.26-7,6.67,6.67,0,0,0-7.86,5.57,25.79,25.79,0,0,0,0,11.33,6.9,6.9,0,0,0,7.16,5.73,10,10,0,0,0,4.68-.94,3.53,3.53,0,0,0,2.24-3.53c0-.18,0-.36,0-.54,0-3.34-1.21-4.51-4.53-4.53Z"/><path class="cls-1" d="M62.12,136.8a2,2,0,0,1,.64-.2c6,0,12,0,18,.12a16,16,0,0,1,4.85,1,5.18,5.18,0,0,1,3.71,5,5.55,5.55,0,0,1-3.3,5.47,14.72,14.72,0,0,1-6.56,1.45c-2.26.06-4.51.07-7,.1.07,2.41-.26,4.76.28,7.08.41,1.71,1.8,2.25,3.37,2.43a3.66,3.66,0,0,1,2.07.39c-.43.25-.64.49-.86.49q-7.23.08-14.45.1a1.83,1.83,0,0,1-.59-.22c.12-.84.71-.61,1.13-.66,2.75-.31,3.82-1.39,3.83-4.14q0-6.78-.1-13.56c-.05-2.86-1.1-3.9-4-4.18a7.55,7.55,0,0,1-1.07-.24Zm10.29,12.08c2.42-.12,4.62-.07,6.79-.37,2.79-.38,4.13-2,4.33-4.82a9.62,9.62,0,0,0,0-1.42c-.24-2.69-1.45-4.25-4.1-4.62a69.46,69.46,0,0,0-7.06-.32Z"/><path class="cls-1" d="M37.69,160.87c-.54-2.73-.44-10.18.2-11.25a3.4,3.4,0,0,1,.4.78,10.67,10.67,0,0,0,5.29,7.08,14.92,14.92,0,0,0,7.38,2.4,7.3,7.3,0,0,0,3.95-.92,3.41,3.41,0,0,0,2-3.15,3.08,3.08,0,0,0-2.2-3c-2.41-.85-4.87-1.56-7.31-2.31-1.82-.56-3.66-1-5.46-1.66a10.71,10.71,0,0,1-2.38-1.22,5.49,5.49,0,0,1-1-8.51,8.81,8.81,0,0,1,4.78-2.61,15.08,15.08,0,0,1,9.4,1.18c.71.3,1.4.67,2.12,1,1.4.56,1.78.41,2.64-.89.18-.27.42-.5.67-.8a24.28,24.28,0,0,1,.14,8.34c-.84-.13-.85-.9-1.09-1.43a10.3,10.3,0,0,0-4.32-5.07A13.33,13.33,0,0,0,45,137.17a4.83,4.83,0,0,0-3.41,1.74c-1.36,1.64-1.14,3.53.76,4.47A28.18,28.18,0,0,0,47,145c2.74.79,5.52,1.44,8.25,2.29a9.06,9.06,0,0,1,2.94,1.6,5.94,5.94,0,0,1,.94,8.45,8.16,8.16,0,0,1-4.72,3,13.85,13.85,0,0,1-7.91-.37c-1.07-.37-2.1-.83-3.17-1.2-2.55-.86-3.57-.49-5.08,1.75C38.18,160.66,38,160.71,37.69,160.87Z"/><path class="cls-1" d="M226.65,158.23c.45,0,.91,0,1.36-.06,2.33-.23,3.43-1.34,3.55-3.67.07-1.3,0-2.61,0-3.92q0-4.64-.07-9.28c0-.35,0-.71,0-1.07-.15-2.57-1.18-3.64-3.72-3.91-.51,0-1.21.22-1.4-.91,5.36,0,10.62,0,15.88,0,.11,0,.22.23.46.5a5.44,5.44,0,0,1-1,.31c-.59.06-1.2,0-1.78.08a3.26,3.26,0,0,0-3.18,3.25,19.1,19.1,0,0,0,0,2.14q0,7.32.12,14.63c0,.53,0,1.06.07,1.8,2.6-.06,5.16.27,7.66-.29,2.76-.62,4.47-2.62,5.69-5,.54-1.06.88-2.21,1.33-3.31.17-.41.39-.8.59-1.2h.39a7.17,7.17,0,0,1,.24,1.19c0,3,.05,6.07.08,9.09-.86.32-24.62.77-25.94.47-.18,0-.31-.27-.46-.42Z"/><path class="cls-1" d="M254.73,158.2a9.43,9.43,0,0,1,1-.21c3-.26,4.08-1.36,4.08-4.45,0-3.62-.06-7.25-.09-10.88,0-.89,0-1.78,0-2.67-.14-2.56-1.2-3.63-3.74-3.85-.4,0-.8-.12-1.2-.19,0,0-.05-.1-.12-.23.32-.81,1.09-.49,1.64-.49,4.35-.07,8.69-.08,13-.1.46,0,.93,0,1.72.08-.39.4-.56.74-.78.76-.76.11-1.55,0-2.31.15a3.19,3.19,0,0,0-2.95,3.07c0,.3-.06.6-.06.89q.06,8.56.14,17.13a5.15,5.15,0,0,0,.16.76c2.38-.08,4.81,0,7.2-.28a6.88,6.88,0,0,0,4.6-2.84,14.6,14.6,0,0,0,2.63-5c.17-.59.44-1.15.74-1.92.33.37.6.53.6.69.06,3.31.09,6.63.12,10-.74,0-1.32.09-1.91.09q-11.42.1-22.83.15C255.86,158.88,255.05,159.28,254.73,158.2Z"/><path class="cls-1" d="M297.24,134.46c1,2.08,2,4.16,3,6.24,2.1,4.47,4.23,8.92,6.27,13.42.93,2,2.11,3.59,4.61,3.51.11,0,.23.21.5.47a3.84,3.84,0,0,1-.94.38c-5.41.35-12,.17-13-.37.46-.71,1.17-.43,1.75-.46,2.63-.12,3.06-.78,2-3.22-.45-1-1-2-1.49-3.18l-9.62.06c-.81,1.36-1.42,2.69-1,4.26s1.95,1.88,3.46,2.48c-.41.29-.61.55-.82.55-3,.05-6,.06-9.36.09.32-.48.45-.9.65-.94,2.49-.48,3.93-2.19,4.91-4.3,2-4.25,3.85-8.56,5.75-12.86.72-1.63,1.38-3.29,2.1-4.92a9.76,9.76,0,0,1,.77-1.27Zm-6.67,15.94,8.59-.06c-.59-2.19-3.58-8.47-4.52-9.48Z"/><path class="cls-1" d="M135.14,147.52c-.2-.51-.42-1-.59-1.54a16.1,16.1,0,0,0-4-6.48,9.59,9.59,0,0,0-6.31-3,5.4,5.4,0,0,0-5.86,3.69,14,14,0,0,0-.78,2.92,30.13,30.13,0,0,0,.16,10.46c.51,2.55,1.82,4.6,4.42,5.37a10.23,10.23,0,0,0,12.49-6.17c.2-.52.45-1,.68-1.53l.41.08a2.89,2.89,0,0,1,0,1,11.09,11.09,0,0,1-7.22,7.34,14,14,0,0,1-15.69-5.55c-3.07-4.72-2.3-10.57,2-14.79a11.54,11.54,0,0,1,11.61-3.24,14.71,14.71,0,0,1,3.49,1.72c1.48.87,2.07.86,3.27-.38.47-.49.91-1,1.42-1.59.68,1.22,1.22,9.23.87,11.49Z"/><path class="cls-1" d="M194.62,153.67c1.82-4.22,3.5-8,5.11-11.87,1.25-3,.68-4.18-2.33-5.29a3.34,3.34,0,0,1-.59-.4c.37-.2.63-.45.9-.46,2.9,0,5.81-.05,9-.07-.25.43-.36.86-.56.9-2.83.62-4.22,2.73-5.28,5.13-2.45,5.55-4.86,11.11-7.31,16.67-.24.56-.58,1.08-1.06,2-.48-.87-.77-1.36-1-1.87q-4.22-9-8.41-17.94a16,16,0,0,0-.93-1.73,4.08,4.08,0,0,0-3.35-2.06,1.43,1.43,0,0,1-.86-.48c1.5-.66,3.07-.35,4.6-.42s3.09-.08,4.63,0a25,25,0,0,1,4.66.12l0,.39a4.67,4.67,0,0,1-.84.35c-.35.06-.71,0-1.07,0-2,.16-2.59,1-1.91,3,.2.56.47,1.09.72,1.63,1.57,3.4,3.15,6.81,4.73,10.2C193.76,152.05,194.1,152.66,194.62,153.67Z"/><path class="cls-1" d="M107.38,159.54a2.67,2.67,0,0,1-.88.37c-1.78.05-3.57.06-5.35.08-2.43,0-4.87,0-7.3,0-.46,0-.92-.05-1.7-.1a5.66,5.66,0,0,1,.79-.79c.12-.09.34,0,.52,0,2.77-.33,3.75-1.36,3.76-4.18q0-6.78-.1-13.54c-.05-2.77-1.07-3.8-3.87-4.08-.51-.06-.51-.06-1.22-.89l15.44-.13c-.49.49-.66.83-.88.88-3.75.67-4.27,1.25-4.25,5,0,4,.07,8,.1,11.94,0,.48,0,.95,0,1.43.2,2.27,1.21,3.27,3.49,3.5l1.23.1Z"/><path class="cls-1" d="M209,135.48l15,.13s.07.21.14.47a4.94,4.94,0,0,1-.89.25c-3,.31-3.93,1.28-3.94,4.36,0,3.74.05,7.48.08,11.22,0,.83,0,1.67,0,2.5.13,2.44,1.18,3.51,3.62,3.75l1.53.16c-.47.41-.66.71-.9.75a9.44,9.44,0,0,1-1.6.06c-3.8,0-7.6.07-11.4.07-.49,0-1.23.27-1.35-.8.69-.08,1.32-.13,1.94-.24a3.05,3.05,0,0,0,2.79-2.79,8.74,8.74,0,0,0,.13-1.77q0-6.33-.1-12.65a9.49,9.49,0,0,0,0-1.07,3.41,3.41,0,0,0-3.42-3.42C210,136.39,209.33,136.69,209,135.48Z"/><path class="cls-1" d="M208.75,238.84a2.2,2.2,0,0,1-2.22,1.62,2.07,2.07,0,0,1-2-1.52,6,6,0,0,1-.15-1.59q-.1-11.4-.17-22.81a9.44,9.44,0,0,1,.06-1.6,2.13,2.13,0,0,1,2.14-1.78A2.21,2.21,0,0,1,208.6,213a8.34,8.34,0,0,1,.07,1.42q.09,11.31.17,22.63C208.85,237.71,208.77,238.42,208.75,238.84Z"/><path class="cls-1" d="M221.19,215.36a2.32,2.32,0,0,1-1.57-2.14,2.15,2.15,0,0,1,1.48-2,6.38,6.38,0,0,1,1.58-.17l17.13-.13h.36c1.67,0,2.65.87,2.65,2.24s-1,2.15-2.53,2.16c-6.07.07-12.13.1-18.2.14A8.08,8.08,0,0,1,221.19,215.36Z"/><path class="cls-1" d="M191.91,214.33a2.24,2.24,0,0,1-2.3,1.35c-1.78,0-3.55,0-5.33,0l-12.11.06a9.62,9.62,0,0,1-1.42,0,2.16,2.16,0,0,1-1.84-2.09,2.12,2.12,0,0,1,1.69-2.2,4.15,4.15,0,0,1,1.06-.09l17.62-.13a2.72,2.72,0,0,1,2.28.76A2.07,2.07,0,0,1,191.91,214.33Z"/><rect class="cls-1" x="126.19" y="175.78" width="160.86" height="23.89" rx="11.61" transform="translate(-1.68 1.87) rotate(-0.52)"/><path class="cls-2" d="M188.44,186.52a4.37,4.37,0,0,1-.25-.48c-.19-.45-.34-.92-.56-1.35a2.86,2.86,0,0,0-2.41-1.67c-1-.08-2-.08-3.07-.12l0,4.58a1.92,1.92,0,0,0,2.28-.89,10.93,10.93,0,0,0,.64-1.71,5.71,5.71,0,0,0,.16-.57c.13.15.24.22.24.29,0,2.14.05,4.29.08,6.58-.21-.16-.37-.22-.4-.32-.14-.43-.2-.9-.37-1.33a2.23,2.23,0,0,0-2.62-1.5c0,1.41,0,2.82,0,4.29a12,12,0,0,0,3.18-.16,4,4,0,0,0,2.94-3,8.42,8.42,0,0,1,.34-.86,11.75,11.75,0,0,1,.17,4.36l-10.86,0s-.07-.12-.16-.26c.24,0,.42-.08.61-.1a1.49,1.49,0,0,0,1.51-1.6c0-.36,0-.72,0-1.07l0-4.53a6.52,6.52,0,0,0,0-.77,1.43,1.43,0,0,0-1.43-1.42c-.22,0-.53.13-.7-.32a33.17,33.17,0,0,1,3.58-.09c1.2,0,2.4,0,3.6,0l3.68,0,0,3.93Z"/><path class="cls-2" d="M274.92,183.75a24.4,24.4,0,0,1,.08,6.77,2.47,2.47,0,0,1-.2-.4c-.14-.44-.22-.9-.39-1.33a2.18,2.18,0,0,0-2.58-1.4l0,4.17a6.36,6.36,0,0,0,4.4-.56,4.48,4.48,0,0,0,1.73-2.47c.08-.27.09-.61.55-.82.08,1.48,0,2.87.07,4.35l-10.93,0c-.05,0-.1-.09-.22-.23.25,0,.43-.1.61-.12,1.05-.14,1.51-.6,1.52-1.67,0-2,0-4.09,0-6.14,0-1-.48-1.46-1.51-1.59-.2,0-.47.1-.61-.33,1.83-.14,3.63-.06,5.42-.09s3.57,0,5.34,0a14.39,14.39,0,0,1-.07,4.09c-.12-.24-.21-.4-.28-.57-.19-.45-.34-.92-.57-1.34a2.74,2.74,0,0,0-2.26-1.64c-1-.09-2.08-.11-3.21-.16,0,1.63,0,3.15,0,4.7C274.15,187.06,274.51,185.39,274.92,183.75Z"/><path class="cls-2" d="M259.92,187.88c0-.46.32-.36.51-.36l3.84,0h2c.19,0,.39,0,.74.05-.2.17-.28.28-.39.32a1.5,1.5,0,0,1-.37,0,1.38,1.38,0,0,0-1.37,1.47c0,.64,0,1.28,0,1.92,0,.25,0,.5,0,.81a1.53,1.53,0,0,1-.48-.17,1.74,1.74,0,0,0-1.74-.22c-.42.12-.82.31-1.23.43a6.54,6.54,0,0,1-5.47-.75,5,5,0,0,1-.47-8.13,5.81,5.81,0,0,1,6-1c.4.15.79.35,1.19.52a.9.9,0,0,0,1.29-.27l.5-.54a3.21,3.21,0,0,1,.21,1.58c0,.48,0,1,0,1.45a5.26,5.26,0,0,1-.07,1.61,2,2,0,0,1-.32-.38c-.13-.3-.22-.63-.36-.93a4.93,4.93,0,0,0-4-3,2.86,2.86,0,0,0-3.38,2.4,11,11,0,0,0,0,4.87,3,3,0,0,0,3.08,2.47,4.34,4.34,0,0,0,2-.41,1.49,1.49,0,0,0,1-1.51v-.23c0-1.44-.52-1.95-1.95-2Z"/><path class="cls-2" d="M144.77,182.9a.92.92,0,0,1,.27-.08c2.58,0,5.17,0,7.75.05a7.22,7.22,0,0,1,2.09.44,2.24,2.24,0,0,1,1.59,2.14,2.37,2.37,0,0,1-1.42,2.35,6.25,6.25,0,0,1-2.82.63l-3,0a14.73,14.73,0,0,0,.12,3.05c.17.73.77,1,1.45,1a1.61,1.61,0,0,1,.89.17c-.19.11-.28.21-.37.21l-6.22.05a.82.82,0,0,1-.26-.1c.06-.36.31-.26.49-.28,1.19-.14,1.64-.6,1.65-1.79,0-1.94,0-3.89,0-5.83,0-1.23-.48-1.68-1.71-1.8a3.41,3.41,0,0,1-.46-.1Zm4.42,5.2c1,0,2,0,2.92-.16a2,2,0,0,0,1.86-2.07,3.11,3.11,0,0,0,0-.61,1.9,1.9,0,0,0-1.76-2,29.55,29.55,0,0,0-3-.14Z"/><path class="cls-2" d="M134.25,193.26a15.13,15.13,0,0,1,.09-4.84,1.34,1.34,0,0,1,.17.34,4.61,4.61,0,0,0,2.28,3,6.31,6.31,0,0,0,3.18,1,3.1,3.1,0,0,0,1.69-.39,1.49,1.49,0,0,0,.86-1.36,1.34,1.34,0,0,0-1-1.27c-1-.37-2.1-.67-3.15-1-.78-.24-1.57-.46-2.35-.72a4.46,4.46,0,0,1-1-.52,2.36,2.36,0,0,1-.44-3.66,3.77,3.77,0,0,1,2.06-1.13,6.47,6.47,0,0,1,4,.51c.31.13.6.29.91.41.61.24.77.18,1.14-.38.08-.12.18-.21.29-.35a10.54,10.54,0,0,1,.06,3.59c-.36,0-.37-.38-.47-.61a4.45,4.45,0,0,0-1.86-2.18,5.77,5.77,0,0,0-3.4-.72,2.13,2.13,0,0,0-1.47.75,1.15,1.15,0,0,0,.33,1.92,11.8,11.8,0,0,0,2,.71c1.18.34,2.38.61,3.55,1a3.93,3.93,0,0,1,1.27.69,2.55,2.55,0,0,1,.4,3.63,3.5,3.5,0,0,1-2,1.3,6,6,0,0,1-3.4-.16c-.46-.16-.91-.36-1.37-.51-1.09-.38-1.53-.22-2.18.75C134.46,193.17,134.38,193.19,134.25,193.26Z"/><path class="cls-2" d="M215.55,192.12a5.82,5.82,0,0,0,.59,0,1.48,1.48,0,0,0,1.53-1.58c0-.56,0-1.12,0-1.69l0-4c0-.15,0-.31,0-.46A1.52,1.52,0,0,0,216,182.7c-.23,0-.53.09-.61-.4h6.84s.09.1.19.22a2.51,2.51,0,0,1-.43.13c-.25,0-.51,0-.76,0a1.4,1.4,0,0,0-1.37,1.4c0,.31,0,.62,0,.92q0,3.15.05,6.3c0,.23,0,.45,0,.77a16.46,16.46,0,0,0,3.3-.12,3.7,3.7,0,0,0,2.44-2.17c.23-.45.38-.95.58-1.42a5,5,0,0,1,.25-.52h.17a3,3,0,0,1,.1.52c0,1.3,0,2.6,0,3.91-.37.13-10.6.33-11.16.2-.08,0-.14-.12-.2-.18Z"/><path class="cls-2" d="M227.63,192.11c.17,0,.31-.08.44-.09,1.31-.11,1.76-.59,1.76-1.91,0-1.56,0-3.12,0-4.68,0-.39,0-.77,0-1.16a1.49,1.49,0,0,0-1.61-1.65l-.51-.08s0,0-.06-.1c.14-.35.47-.21.71-.21,1.87,0,3.74,0,5.6,0a7.37,7.37,0,0,1,.74,0c-.16.17-.24.32-.33.33-.33,0-.67,0-1,.06a1.37,1.37,0,0,0-1.27,1.32,2.56,2.56,0,0,0,0,.39l.06,7.37a2.14,2.14,0,0,0,.07.32c1,0,2.07,0,3.1-.12a3,3,0,0,0,2-1.22,6.34,6.34,0,0,0,1.13-2.17c.07-.25.19-.49.32-.82.14.16.25.23.25.3,0,1.42,0,2.85.06,4.31l-.82.05c-3.28,0-6.55,0-9.83.06C228.12,192.4,227.77,192.58,227.63,192.11Z"/><path class="cls-2" d="M245.92,181.9c.43.89.86,1.78,1.28,2.68.9,1.92,1.82,3.84,2.7,5.77.4.89.91,1.55,2,1.51.05,0,.1.1.22.21a1.7,1.7,0,0,1-.41.16,22.27,22.27,0,0,1-5.61-.16c.2-.3.5-.18.75-.2,1.13-.05,1.32-.33.86-1.38-.19-.45-.41-.88-.64-1.37l-4.14,0a2.24,2.24,0,0,0-.42,1.83c.18.69.83.81,1.48,1.07-.17.12-.26.23-.35.23l-4,0c.13-.21.19-.39.27-.4a3,3,0,0,0,2.12-1.85c.85-1.83,1.65-3.69,2.47-5.53.31-.71.59-1.42.9-2.12a5,5,0,0,1,.33-.55Zm-2.87,6.85,3.7,0a19.92,19.92,0,0,0-1.94-4.08Z"/><path class="cls-2" d="M176.18,187.51c-.08-.22-.18-.43-.25-.66a6.91,6.91,0,0,0-1.71-2.78,4.14,4.14,0,0,0-2.71-1.29,2.34,2.34,0,0,0-2.53,1.59,6.67,6.67,0,0,0-.33,1.26,12.84,12.84,0,0,0,.07,4.5,2.74,2.74,0,0,0,1.9,2.31,4.24,4.24,0,0,0,4-.81,4.18,4.18,0,0,0,1.33-1.85c.09-.22.2-.43.3-.65l.17,0a1,1,0,0,1,0,.43,4.76,4.76,0,0,1-3.1,3.16,6,6,0,0,1-6.75-2.38,5.28,5.28,0,0,1,5.84-7.76,6,6,0,0,1,1.5.74c.64.37.89.37,1.41-.17.2-.21.39-.44.61-.68a17.34,17.34,0,0,1,.37,4.94Z"/><path class="cls-2" d="M201.77,190.16c.79-1.82,1.51-3.45,2.2-5.1.54-1.28.29-1.81-1-2.28a1.5,1.5,0,0,1-.26-.17c.16-.09.28-.2.39-.2,1.25,0,2.5,0,3.86,0-.11.18-.16.37-.24.39a3.28,3.28,0,0,0-2.27,2.2c-1.06,2.39-2.09,4.78-3.15,7.17a9.55,9.55,0,0,1-.45.85c-.21-.37-.33-.58-.44-.8-1.21-2.58-2.41-5.15-3.62-7.72a5.81,5.81,0,0,0-.4-.74,1.74,1.74,0,0,0-1.44-.89.64.64,0,0,1-.37-.21,5.32,5.32,0,0,1,2-.18c.66,0,1.33,0,2,0a11.23,11.23,0,0,1,2,.06l0,.16a1.31,1.31,0,0,1-.37.15,3.31,3.31,0,0,1-.45,0c-.88.07-1.12.44-.83,1.28.09.25.2.47.31.71l2,4.39C201.4,189.47,201.55,189.73,201.77,190.16Z"/><path class="cls-2" d="M164.24,192.69a1.54,1.54,0,0,1-.38.16l-2.3,0-3.14,0c-.2,0-.4,0-.74-.05.17-.17.25-.27.34-.34a.82.82,0,0,1,.23,0c1.19-.14,1.61-.58,1.61-1.8,0-1.94,0-3.88,0-5.82,0-1.19-.46-1.63-1.66-1.76-.22,0-.22,0-.53-.38l6.64,0c-.2.21-.28.35-.37.37-1.61.29-1.84.54-1.83,2.14s0,3.42,0,5.14c0,.2,0,.41,0,.61a1.44,1.44,0,0,0,1.5,1.51l.53,0Z"/><path class="cls-2" d="M207.94,182.34l6.44,0a1,1,0,0,1,.06.2,1.82,1.82,0,0,1-.38.11c-1.3.14-1.7.55-1.7,1.88,0,1.61,0,3.22,0,4.83,0,.35,0,.71,0,1.07a1.48,1.48,0,0,0,1.56,1.61l.66.07c-.2.18-.28.31-.39.33a4,4,0,0,1-.69,0l-4.9,0c-.21,0-.53.12-.58-.34.29,0,.56-.06.83-.11a1.3,1.3,0,0,0,1.2-1.2,3.84,3.84,0,0,0,.06-.76c0-1.81,0-3.63,0-5.44a3.54,3.54,0,0,0,0-.46,1.46,1.46,0,0,0-1.47-1.47C208.4,182.73,208.1,182.86,207.94,182.34Z"/></g></g></svg>